<?xml version="1.0" encoding="UTF-8" standalone="no"?>
<svg
   xmlns:dc="http://purl.org/dc/elements/1.1/"
   xmlns:cc="http://creativecommons.org/ns#"
   xmlns:rdf="http://www.w3.org/1999/02/22-rdf-syntax-ns#"
   xmlns:svg="http://www.w3.org/2000/svg"
   xmlns="http://www.w3.org/2000/svg"
   xmlns:sodipodi="http://sodipodi.sourceforge.net/DTD/sodipodi-0.dtd"
   xmlns:inkscape="http://www.inkscape.org/namespaces/inkscape"
   version="1.1"
   id="svg2"
   width="2116.2666"
   height="2133.3333"
   viewBox="0 0 2116.2666 2133.3333"
   sodipodi:docname="favicon.svg"
   inkscape:version="1.0.2 (e86c870879, 2021-01-15)">
  <metadata
     id="metadata8">
    <rdf:RDF>
      <cc:Work
         rdf:about="">
        <dc:format>image/svg+xml</dc:format>
        <dc:type
           rdf:resource="http://purl.org/dc/dcmitype/StillImage" />
        <dc:title></dc:title>
      </cc:Work>
    </rdf:RDF>
  </metadata>
  <defs
     id="defs6" />
  <sodipodi:namedview
     pagecolor="#ffffff"
     bordercolor="#666666"
     borderopacity="1"
     objecttolerance="10"
     gridtolerance="10"
     guidetolerance="10"
     inkscape:pageopacity="0"
     inkscape:pageshadow="2"
     inkscape:window-width="2518"
     inkscape:window-height="1386"
     id="namedview4"
     showgrid="false"
     inkscape:zoom="0.25"
     inkscape:cx="27.416478"
     inkscape:cy="849.85623"
     inkscape:window-x="42"
     inkscape:window-y="54"
     inkscape:window-maximized="0"
     inkscape:current-layer="g10" />
  <g
     inkscape:groupmode="layer"
     inkscape:label="Image"
     id="g10">
    <path
       style="fill:#000000;stroke-width:1.06667"
       d="m 1102.9333,2131.8967 c 0,-2.6519 19.2421,-23.3942 51.112,-55.0967 38.3361,-38.135 46.8526,-47.5909 57.4109,-63.7441 31.2151,-47.7567 28.0548,-101.7276 -9.2347,-157.7077 -15.3802,-23.0889 -29.4355,-39.2133 -62.6924,-71.9207 -28.3345,-27.8665 -45.8892,-43.9743 -103.0888,-94.5914 -69.67863,-61.6602 -79.40484,-71.0306 -98.16879,-94.5775 -13.36782,-16.7752 -19.17782,-31.1807 -19.1948,-47.592 -0.0154,-14.8106 2.41888,-20.4349 13.61883,-31.4666 19.43666,-19.1447 48.27986,-28.4154 116.37106,-37.4039 27.2149,-3.5925 43.8578,-3.83 50.8622,-0.726 3.3657,1.4914 5.8659,3.5923 7.663,6.4389 5.7955,9.1808 10.4892,10.3331 29.4748,7.2359 4.9867,-0.8135 9.2697,-1.2809 9.5179,-1.0386 0.2481,0.2423 -0.3596,5.1175 -1.3504,10.8337 -0.9908,5.7163 -1.7938,11.0515 -1.7845,11.8561 0.014,1.2087 3.1209,1.3408 17.8837,0.7606 9.8267,-0.3863 19.5567,-0.9482 21.6223,-1.2487 l 3.7556,-0.5463 1.2056,7.6561 c 1.5971,10.1428 3.6329,12.162 14.3194,14.2028 15.0071,2.8657 19.6166,6.1341 23.4401,16.6208 3.8399,10.5309 9.9263,12.7506 24.9903,9.1132 13.7208,-3.3129 18.8009,-1.8279 21.4405,6.2678 3.3276,10.2056 5.8224,11.4422 25.0198,12.4018 16.0631,0.8029 19.1937,1.9362 21.1933,7.672 0.6305,1.8088 1.1464,5.1931 1.1464,7.5205 v 4.2318 l 6.6667,-0.6227 c 3.6667,-0.3424 14.6048,-0.9322 24.3071,-1.3104 l 17.6404,-0.6877 -0.041,9.0942 c -0.036,8.201 0.2152,9.3669 2.5623,11.8708 4.1317,4.4074 9.4408,5.4878 19.6868,4.0063 19.4052,-2.8056 22.9363,-1.0296 24.7223,12.4341 l 0.7297,5.5002 6.5292,-0.011 c 28.758,-0.049 64.6528,-6.7762 116.3409,-21.8056 98.2704,-28.5743 187.0305,-65.5877 255.5217,-106.554 15.4574,-9.2455 22.4732,-14.9227 24.506,-19.83 3.0619,-7.392 -7.7344,-19.1355 -32.6786,-35.5459 -19.777,-13.011 -58.6109,-32.6802 -132.0941,-66.9051 -106.4262,-49.5681 -226.8272,-86.0865 -363.7333,-110.3227 -72.0145,-12.7485 -149.8806,-23.2738 -185.7534,-25.1084 -29.7829,-1.5232 -43.6964,-4.7669 -47.888,-11.1641 -1.2345,-1.8839 -2.6331,-9.2207 -4.34,-22.7665 -3.3514,-26.5948 -7.0721,-44.9994 -12.235,-60.52 -8.6713,-26.0677 -26.6909,-57.9717 -46.66976,-82.6298 -11.32094,-13.9727 -34.60931,-37.7818 -42.31374,-43.2603 -6.69822,-4.7629 -14.05362,-8.3169 -15.43987,-7.4601 -0.44728,0.2764 -1.13898,2.5532 -1.53711,5.0596 -1.23097,7.7493 -7.87627,26.2168 -13.41489,37.2803 -10.34055,20.6556 -24.0924,38.6684 -45.50675,59.6069 -15.68398,15.3353 -27.20779,25.0382 -69.6079,58.6081 -103.54019,81.9772 -116.78181,93.124 -150.07771,126.3365 -23.61441,23.5552 -40.25266,42.5654 -52.87843,60.4166 -27.65402,39.0993 -43.45644,75.0438 -50.60549,115.1085 -2.84494,15.9437 -2.88562,59.3003 -0.0681,72.5334 10.94239,51.3923 41.89725,93.7762 100.46953,137.5641 20.39977,15.2507 38.77104,27.5464 86.93334,58.1834 60.83956,38.7013 83.99872,54.8216 110.91968,77.2076 55.89515,46.4791 92.42295,100.0037 103.70088,151.9539 1.94788,8.9727 2.34252,14.1088 2.30699,30.0243 -0.0384,17.1827 -0.33166,20.2794 -2.79163,29.4733 -5.59784,20.9215 -11.36107,31.7193 -23.30332,43.6605 -9.56689,9.566 -22.56971,16.6347 -37.23261,20.2408 -13.2195,3.251 -37.83412,3.9709 -56.53333,1.6532 -33.42679,-4.1429 -105.71978,-25.5177 -162.66666,-48.0954 C 506.82365,1994.1438 362.00834,1889.38 247.55112,1752.049 109.60276,1586.5322 24.089864,1380.7416 4.859268,1168 1.2735187,1128.332 0.61331884,1112.5758 0.61331884,1066.6666 c 0,-45.9091 0.66019986,-61.6653 4.24594916,-101.33328 C 16.302199,838.74403 51.692969,712.49208 108.16602,596.79999 203.74441,400.99572 357.20672,238.59284 546.13332,133.3171 707.94219,43.152204 892.32014,-3.17976 1075.2,0.36901285 1161.2116,2.038063 1236.2716,11.909534 1315.7333,32.002586 c 155.5608,39.335837 300.9264,114.206154 423.4666,218.105804 46.3484,39.29798 96.6256,90.34204 133.9813,136.02494 110.7527,135.44126 185.9914,293.27341 221.1941,464.00971 29.1985,141.61578 29.1985,291.43146 0,433.04726 -35.2027,170.7363 -110.4414,328.5684 -221.1941,464.0097 -27.2832,33.3651 -70.9095,79.4299 -103.0479,108.8081 -117.1602,107.0975 -256.2138,186.4459 -406.759,232.1099 -69.616,21.1162 -145.6847,35.7552 -215.1077,41.3965 -24.7093,2.0078 -45.3333,3.0917 -45.3333,2.3822 z m 786.1333,-824.2589 c 17.5408,-2.2251 33.9826,-8.2177 48.1017,-17.5316 11.2229,-7.4035 26.9057,-23.4866 35.4061,-36.3098 26.8979,-40.5767 43.9562,-106.2571 48.7395,-187.6631 C 2030.086,916.83871 1983.7903,730.13846 1901.8925,584.53332 1829.2343,455.35521 1724.4247,342.65337 1598.3999,258.18762 1476.8357,176.71144 1342.5103,125.23645 1203.2,106.74263 c -24.1169,-3.20158 -46.6751,-5.05276 -92.2667,-7.571611 -48.3824,-2.673042 -87.5806,-2.869453 -109.3333,-0.547837 -8.5067,0.907897 -33.9467,3.559178 -56.53336,5.891738 -84.07066,8.68211 -116.15515,14.57421 -168.08524,30.86767 -102.25469,32.08321 -199.47216,81.03915 -286.19617,144.12022 -62.62809,45.55426 -125.56624,104.59826 -175.63058,164.76385 -67.32352,80.90707 -120.99579,172.3272 -159.68974,272 -31.35506,80.76835 -46.42283,142.63253 -52.21972,214.39999 -1.75009,21.6668 -1.61631,161.27655 0.17581,183.46665 4.02167,49.7965 17.27094,84.5685 41.04979,107.7333 15.34811,14.9518 34.4706,24.1083 58.28856,27.9108 15.34267,2.4494 48.61335,2.4614 64.4843,0.023 51.00251,-7.8346 98.38704,-29.2226 149.28967,-67.3846 122.50966,-91.8462 195.30702,-233.74601 216.98142,-422.94955 6.67962,-58.30864 8.73845,-138.73207 4.92885,-192.53333 -5.07369,-71.6532 -11.8012,-142.57101 -15.47854,-163.16632 -3.9451,-22.09494 -4.35615,-37.9873 -1.16435,-45.01718 4.79924,-10.57027 13.02333,-10.94844 43.79928,-2.01397 255.46817,74.16413 483.14992,241.24605 719.59052,528.06414 38.545,46.75777 69.8232,86.99545 114.0092,146.66671 60.2543,81.3707 89.7575,116.9531 128.6949,155.2126 36.6216,35.9841 65.1702,57.9466 105.4387,81.1142 58.8742,33.8718 106.5859,46.0788 155.7333,39.8443 z"
       id="path14" />
  </g>
</svg>
